<svg xmlns="http://www.w3.org/2000/svg" width="132" height="64" viewBox="0 0 102 16" fill="none">
<path d="M5.54896 0.0888891H9.5478L15.0743 15.8667H10.6261L9.78737 13.2181H5.28928L4.47062 15.8667H0L5.54896 0.0888891ZM8.9637 9.69898L7.54838 5L6.06566 9.69898H8.9637Z" fill="#242426"></path>
<path d="M21.0433 7.84444C21.0433 6.88148 21.223 5.93333 21.5824 5C21.9568 4.06667 22.496 3.22963 23.1999 2.48889C23.9038 1.74815 24.7575 1.14815 25.761 0.688889C26.7644 0.22963 27.9102 0 29.1982 0C30.7408 0 32.0738 0.318519 33.197 0.955556C34.3353 1.57778 35.1815 2.40741 35.7356 3.44444L32.3883 5.8C32.2385 5.41482 32.0363 5.0963 31.7817 4.84445C31.5421 4.59259 31.2725 4.39259 30.973 4.24445C30.6734 4.0963 30.3589 3.99259 30.0294 3.93333C29.7149 3.87407 29.4079 3.84444 29.1083 3.84444C28.4793 3.84444 27.9326 3.97037 27.4684 4.22222C27.019 4.45926 26.6446 4.77778 26.3451 5.17778C26.0605 5.56296 25.8434 6.00741 25.6936 6.51111C25.5588 7 25.4914 7.48889 25.4914 7.97778C25.4914 8.52593 25.5738 9.05185 25.7385 9.55556C25.9033 10.0593 26.1429 10.5037 26.4574 10.8889C26.7719 11.2741 27.1538 11.5852 27.6032 11.8222C28.0674 12.0444 28.5841 12.1556 29.1533 12.1556C29.4528 12.1556 29.7598 12.1259 30.0743 12.0667C30.3889 11.9926 30.6884 11.8815 30.973 11.7333C31.2725 11.5704 31.5346 11.3704 31.7593 11.1333C31.9989 10.8815 32.1861 10.5778 32.3209 10.2222L35.8929 12.3333C35.6533 12.9111 35.2863 13.4296 34.7921 13.8889C34.3128 14.3481 33.7587 14.7333 33.1296 15.0444C32.5156 15.3556 31.8491 15.5926 31.1302 15.7556C30.4263 15.9185 29.7374 16 29.0634 16C27.8802 16 26.7944 15.7704 25.8059 15.3111C24.8324 14.837 23.9862 14.2148 23.2673 13.4444C22.5634 12.6741 22.0168 11.8 21.6273 10.8222C21.2379 9.84445 21.0433 8.85185 21.0433 7.84444Z" fill="#242426"></path>
<path d="M43.72 0.0888891H57.4014V15.8667H53.0207V3.86667H48.1007V15.8667H43.72V0.0888891Z" fill="#242426"></path>
<path d="M66.5057 15.8667V0.0888891H73.3801C74.1589 0.0888891 74.8778 0.251852 75.5368 0.577778C76.1958 0.888889 76.7574 1.3037 77.2217 1.82222C77.701 2.32593 78.0754 2.91111 78.345 3.57778C78.6146 4.22963 78.7494 4.88889 78.7494 5.55556C78.7494 6.25185 78.622 6.93333 78.3674 7.6C78.1128 8.25185 77.7534 8.83704 77.2891 9.35555C76.8398 9.85926 76.2856 10.2667 75.6267 10.5778C74.9827 10.8741 74.2712 11.0222 73.4924 11.0222H70.8865V15.8667H66.5057ZM70.8865 7.24444H73.2004C73.47 7.24444 73.7171 7.12593 73.9417 6.88889C74.1814 6.63704 74.3012 6.19259 74.3012 5.55556C74.3012 4.9037 74.1664 4.45926 73.8968 4.22222C73.6272 3.98519 73.3577 3.86667 73.0881 3.86667H70.8865V7.24444Z" fill="#242426"></path>
<path d="M93.8675 16C92.6544 16 91.5536 15.7704 90.5651 15.3111C89.5766 14.8519 88.7304 14.2519 88.0265 13.5111C87.3226 12.7556 86.7759 11.8963 86.3865 10.9333C85.9971 9.97037 85.8024 8.97778 85.8024 7.95556C85.8024 6.91852 86.0046 5.91852 86.409 4.95556C86.8134 3.99259 87.375 3.14815 88.0939 2.42222C88.8278 1.68148 89.6889 1.0963 90.6774 0.666667C91.6809 0.222222 92.7742 0 93.9574 0C95.1705 0 96.2713 0.22963 97.2598 0.688889C98.2483 1.14815 99.0945 1.75556 99.7984 2.51111C100.502 3.26667 101.041 4.12593 101.416 5.08889C101.805 6.05185 102 7.03704 102 8.04444C102 9.08148 101.798 10.0815 101.393 11.0444C100.989 11.9926 100.427 12.837 99.7085 13.5778C98.9896 14.3037 98.1285 14.8889 97.125 15.3333C96.1365 15.7778 95.0507 16 93.8675 16ZM90.2506 8C90.2506 8.53333 90.3255 9.05185 90.4752 9.55556C90.625 10.0444 90.8497 10.4815 91.1492 10.8667C91.4487 11.2519 91.8232 11.563 92.2725 11.8C92.7368 12.037 93.2834 12.1556 93.9125 12.1556C94.5415 12.1556 95.0881 12.037 95.5524 11.8C96.0167 11.5481 96.3911 11.2296 96.6757 10.8444C96.9752 10.4444 97.1924 9.99259 97.3272 9.48889C97.477 8.98519 97.5518 8.47407 97.5518 7.95556C97.5518 7.42222 97.477 6.91111 97.3272 6.42222C97.1774 5.91852 96.9453 5.48148 96.6308 5.11111C96.3312 4.72592 95.9493 4.42222 95.485 4.2C95.0357 3.96296 94.504 3.84444 93.89 3.84444C93.2609 3.84444 92.7143 3.96296 92.25 4.2C91.8007 4.43704 91.4263 4.75556 91.1267 5.15556C90.8272 5.54074 90.6025 5.98519 90.4528 6.48889C90.318 6.97778 90.2506 7.48148 90.2506 8Z" fill="#242426"></path>
</svg>