<svg width="325" height="70" xmlns="http://www.w3.org/2000/svg" version="1.1">
 <g>
  <title>Layer 1</title>
  <g id="svg_5" transform="matrix(1 0 0 1 -0.909091 -1.03712)">
   <svg y="-127.43483" x="-0.19697" id="svg_24" width="325" height="325" preserveAspectRatio="xMidYMid meet" data-background-color="#ffffff" viewBox="0 0 396 86" xmlns:xlink="http://www.w3.org/1999/xlink" xmlns="http://www.w3.org/2000/svg">
    <g transform="matrix(1,0,0,1,0.2400000000000091,0.2744368499257064)" id="svg_1">
     <g id="svg_9">
      <svg id="svg_25" width="395.52" height="85.45113" viewBox="0 0 395.52 85.45112630014859">
       <g id="svg_13">
        <svg id="svg_26" width="395.52" height="85.45113" viewBox="0 0 395.52 85.45112630014859">
         <g id="svg_17">
          <svg id="svg_27" width="395.52" height="85.45113" viewBox="0 0 395.52 85.45112630014859">
           <g id="svg_14">
            <svg id="svg_18" width="395.52" height="85.45113" viewBox="0 0 395.52 85.45112630014859">
             <g id="svg_21">
              <svg id="svg_28" width="395.52" height="85.45113" viewBox="0 0 395.52 85.45112630014859">
               <g id="svg_23">
                <svg id="svg_29" data-palette-color="#2a2c35" height="85.45113" viewBox="3 -35.5 164.3 35.5" width="395.52">
                 <path id="svg_22" data-fill-palette-color="primary" class="wordmark-text-0" fill="white" d="m37.99,-25l0,25l-6.98,0l0,-25q0,-0.73 -0.28,-1.37q-0.29,-0.63 -0.76,-1.11q-0.48,-0.47 -1.11,-0.74q-0.64,-0.27 -1.37,-0.27l0,0q-0.73,0 -1.37,0.27q-0.63,0.27 -1.11,0.74q-0.47,0.48 -0.74,1.11q-0.27,0.64 -0.27,1.37l0,0l0,25l-7.01,0l0,-25q0,-0.73 -0.27,-1.37q-0.26,-0.63 -0.74,-1.11q-0.48,-0.47 -1.11,-0.74q-0.64,-0.27 -1.37,-0.27l0,0q-0.73,0 -1.37,0.27q-0.63,0.27 -1.11,0.74q-0.47,0.48 -0.74,1.11q-0.27,0.64 -0.27,1.37l0,0l0,25l-7.01,0l0,-25q0,-2.17 0.82,-4.09q0.82,-1.92 2.25,-3.34q1.43,-1.43 3.34,-2.25q1.92,-0.82 4.09,-0.82l0,0q1.95,0 3.76,0.7q1.81,0.69 3.25,2.01l0,0q1.44,-1.32 3.23,-2.01q1.8,-0.7 3.75,-0.7l0,0q2.17,0 4.09,0.82q1.92,0.82 3.34,2.25q1.43,1.42 2.25,3.34q0.82,1.92 0.82,4.09l0,0zm12.84,11.01l14.01,0l0,-7.01q0,-1.44 -0.55,-2.72q-0.55,-1.28 -1.5,-2.23q-0.95,-0.95 -2.23,-1.5q-1.29,-0.55 -2.73,-0.55l0,0q-1.44,0 -2.72,0.55q-1.28,0.55 -2.23,1.5q-0.95,0.95 -1.5,2.23q-0.55,1.28 -0.55,2.72l0,0l0,7.01zm21.02,-7.01l0,21l-7.01,0l0,-7.01l-14.01,0l0,7.01l-6.98,0l0,-21q0,-2.9 1.09,-5.45q1.1,-2.55 2.99,-4.46q1.9,-1.9 4.45,-3q2.55,-1.1 5.45,-1.1l0,0q2.91,0 5.46,1.1q2.55,1.1 4.46,3q1.9,1.91 3,4.46q1.1,2.55 1.1,5.45l0,0zm20.09,-7l-7.01,0l0,14.01l7.01,0q1.44,0 2.71,-0.55q1.27,-0.55 2.22,-1.5q0.95,-0.95 1.5,-2.23q0.55,-1.29 0.55,-2.73l0,0q0,-1.44 -0.55,-2.72q-0.55,-1.28 -1.5,-2.23q-0.95,-0.95 -2.22,-1.5q-1.27,-0.55 -2.71,-0.55l0,0zm-7.01,20.99l0,7.01l-7.01,0l0,-35.01l14.02,0q1.93,0 3.71,0.5q1.78,0.5 3.33,1.42q1.55,0.91 2.83,2.19q1.29,1.29 2.2,2.85q0.92,1.56 1.42,3.34q0.5,1.79 0.5,3.71l0,0q0,1.81 -0.45,3.52q-0.46,1.71 -1.3,3.25q-0.84,1.53 -2.06,2.83q-1.22,1.29 -2.74,2.24l0,0l3.89,9.16l-7.45,0l-3.05,-7.06l-7.84,0.05zm23.53,-17.5l0,0q0,-2.17 0.83,-4.08q0.83,-1.9 2.26,-3.33q1.43,-1.43 3.34,-2.26q1.9,-0.83 4.07,-0.83l0,0l16.07,0l0,7.01l-16.07,0q-0.73,0 -1.36,0.27q-0.64,0.26 -1.12,0.74q-0.47,0.48 -0.74,1.11q-0.27,0.64 -0.27,1.37l0,0q0,0.73 0.27,1.38q0.27,0.64 0.74,1.12q0.48,0.48 1.12,0.75q0.63,0.26 1.36,0.26l0,0l7.01,0q2.17,0 4.09,0.82q1.91,0.82 3.34,2.25q1.43,1.43 2.25,3.34q0.82,1.92 0.82,4.09l0,0q0,2.17 -0.82,4.08q-0.82,1.9 -2.25,3.33q-1.43,1.43 -3.34,2.26q-1.92,0.83 -4.09,0.83l0,0l-15.55,0l0,-7.01l15.55,0q0.73,0 1.37,-0.27q0.63,-0.26 1.11,-0.74q0.47,-0.48 0.74,-1.11q0.27,-0.64 0.27,-1.37l0,0q0,-0.73 -0.27,-1.37q-0.27,-0.63 -0.74,-1.11q-0.48,-0.47 -1.11,-0.74q-0.64,-0.27 -1.37,-0.27l0,0l-7.01,0q-2.17,0 -4.07,-0.83q-1.91,-0.83 -3.34,-2.26q-1.43,-1.43 -2.26,-3.34q-0.83,-1.92 -0.83,-4.09zm48.34,13.55l0,10.96l-6.98,0l0,-10.96q-2.32,-0.59 -4.26,-1.88q-1.94,-1.3 -3.33,-3.09q-1.4,-1.79 -2.16,-3.98q-0.77,-2.18 -0.77,-4.6l0,0l0,-10.5l7,0l0,10.5q0,1.44 0.55,2.72q0.55,1.28 1.5,2.23q0.96,0.96 2.24,1.51q1.28,0.55 2.72,0.55l0,0q1.44,0 2.72,-0.55q1.28,-0.55 2.24,-1.51q0.95,-0.95 1.5,-2.23q0.55,-1.28 0.55,-2.72l0,0l0,-10.5l6.98,0l0,10.5q0,2.42 -0.77,4.6q-0.77,2.19 -2.16,3.98q-1.39,1.79 -3.32,3.09q-1.93,1.29 -4.25,1.88l0,0z"/>
                </svg>
               </g>
              </svg>
             </g>
            </svg>
           </g>
          </svg>
         </g>
        </svg>
       </g>

      </svg>
     </g>
     <rect id="svg_30" visibility="hidden" fill="none" height="85.45113" width="395.52"/>
    </g>
   </svg>
  </g>
 </g>
</svg>