<svg xmlns="http://www.w3.org/2000/svg" version="1.1" xmlns:xlink="http://www.w3.org/1999/xlink" xmlns:svgjs="http://svgjs.dev/svgjs" width="1500" height="1500" viewBox="0 0 1500 1500"><rect width="1500" height="1500" fill="#ffffff"></rect><g transform="matrix(0.6666666666666666,0,0,0.6666666666666666,249.39393939393938,640.9752559982492)"><svg viewBox="0 0 396 86" data-background-color="#ffffff" preserveAspectRatio="xMidYMid meet" height="325" width="1500" xmlns="http://www.w3.org/2000/svg" xmlns:xlink="http://www.w3.org/1999/xlink"><g id="tight-bounds" transform="matrix(1,0,0,1,0.2400000000000091,0.2744368499257064)"><svg viewBox="0 0 395.52 85.45112630014859" height="85.45112630014859" width="395.52"><g><svg viewBox="0 0 395.52 85.45112630014859" height="85.45112630014859" width="395.52"><g><svg viewBox="0 0 395.52 85.45112630014859" height="85.45112630014859" width="395.52"><g id="textblocktransform"><svg viewBox="0 0 395.52 85.45112630014859" height="85.45112630014859" width="395.52" id="textblock"><g><svg viewBox="0 0 395.52 85.45112630014859" height="85.45112630014859" width="395.52"><g transform="matrix(1,0,0,1,0,0)"><svg width="395.52" viewBox="3 -35.5 164.3 35.5" height="85.45112630014859" data-palette-color="#2a2c35"><path d="M37.99-25L37.99 0 31.01 0 31.01-25Q31.01-25.73 30.73-26.37 30.44-27 29.97-27.48 29.49-27.95 28.86-28.22 28.22-28.49 27.49-28.49L27.49-28.49Q26.76-28.49 26.12-28.22 25.49-27.95 25.01-27.48 24.54-27 24.27-26.37 24-25.73 24-25L24-25 24 0 16.99 0 16.99-25Q16.99-25.73 16.72-26.37 16.46-27 15.98-27.48 15.5-27.95 14.87-28.22 14.23-28.49 13.5-28.49L13.5-28.49Q12.77-28.49 12.13-28.22 11.5-27.95 11.02-27.48 10.55-27 10.28-26.37 10.01-25.73 10.01-25L10.01-25 10.01 0 3 0 3-25Q3-27.17 3.82-29.09 4.64-31.01 6.07-32.43 7.5-33.86 9.41-34.68 11.33-35.5 13.5-35.5L13.5-35.5Q15.45-35.5 17.26-34.8 19.07-34.11 20.51-32.79L20.51-32.79Q21.95-34.11 23.74-34.8 25.54-35.5 27.49-35.5L27.49-35.5Q29.66-35.5 31.58-34.68 33.5-33.86 34.92-32.43 36.35-31.01 37.17-29.09 37.99-27.17 37.99-25L37.99-25ZM50.83-13.99L64.84-13.99 64.84-21Q64.84-22.44 64.29-23.72 63.74-25 62.79-25.95 61.84-26.9 60.56-27.45 59.27-28 57.83-28L57.83-28Q56.39-28 55.11-27.45 53.83-26.9 52.88-25.95 51.93-25 51.38-23.72 50.83-22.44 50.83-21L50.83-21 50.83-13.99ZM71.85-21L71.85 0 64.84 0 64.84-7.01 50.83-7.01 50.83 0 43.85 0 43.85-21Q43.85-23.9 44.94-26.45 46.04-29 47.93-30.91 49.83-32.81 52.38-33.91 54.93-35.01 57.83-35.01L57.83-35.01Q60.74-35.01 63.29-33.91 65.84-32.81 67.75-30.91 69.65-29 70.75-26.45 71.85-23.9 71.85-21L71.85-21ZM91.94-28L84.93-28 84.93-13.99 91.94-13.99Q93.38-13.99 94.65-14.54 95.92-15.09 96.87-16.04 97.82-16.99 98.37-18.27 98.92-19.56 98.92-21L98.92-21Q98.92-22.44 98.37-23.72 97.82-25 96.87-25.95 95.92-26.9 94.65-27.45 93.38-28 91.94-28L91.94-28ZM84.93-7.01L84.93 0 77.92 0 77.92-35.01 91.94-35.01Q93.87-35.01 95.65-34.51 97.43-34.01 98.98-33.09 100.53-32.18 101.81-30.9 103.1-29.61 104.01-28.05 104.93-26.49 105.43-24.71 105.93-22.92 105.93-21L105.93-21Q105.93-19.19 105.48-17.48 105.02-15.77 104.18-14.23 103.34-12.7 102.12-11.4 100.9-10.11 99.38-9.16L99.38-9.16 103.27 0 95.82 0 92.77-7.06 84.93-7.01ZM108.46-24.51L108.46-24.51Q108.46-26.68 109.29-28.59 110.12-30.49 111.55-31.92 112.98-33.35 114.89-34.18 116.79-35.01 118.96-35.01L118.96-35.01 135.03-35.01 135.03-28 118.96-28Q118.23-28 117.6-27.73 116.96-27.47 116.48-26.99 116.01-26.51 115.74-25.88 115.47-25.24 115.47-24.51L115.47-24.51Q115.47-23.78 115.74-23.13 116.01-22.49 116.48-22.01 116.96-21.53 117.6-21.26 118.23-21 118.96-21L118.96-21 125.97-21Q128.14-21 130.06-20.18 131.97-19.36 133.4-17.93 134.83-16.5 135.65-14.59 136.47-12.67 136.47-10.5L136.47-10.5Q136.47-8.33 135.65-6.42 134.83-4.52 133.4-3.09 131.97-1.66 130.06-0.83 128.14 0 125.97 0L125.97 0 110.42 0 110.42-7.01 125.97-7.01Q126.7-7.01 127.34-7.28 127.97-7.54 128.45-8.02 128.92-8.5 129.19-9.13 129.46-9.77 129.46-10.5L129.46-10.5Q129.46-11.23 129.19-11.87 128.92-12.5 128.45-12.98 127.97-13.45 127.34-13.72 126.7-13.99 125.97-13.99L125.97-13.99 118.96-13.99Q116.79-13.99 114.89-14.82 112.98-15.65 111.55-17.08 110.12-18.51 109.29-20.42 108.46-22.34 108.46-24.51ZM156.8-10.96L156.8 0 149.82 0 149.82-10.96Q147.5-11.55 145.56-12.84 143.62-14.14 142.23-15.93 140.83-17.72 140.07-19.91 139.3-22.09 139.3-24.51L139.3-24.51 139.3-35.01 146.3-35.01 146.3-24.51Q146.3-23.07 146.85-21.79 147.4-20.51 148.35-19.56 149.31-18.6 150.59-18.05 151.87-17.5 153.31-17.5L153.31-17.5Q154.75-17.5 156.03-18.05 157.31-18.6 158.27-19.56 159.22-20.51 159.77-21.79 160.32-23.07 160.32-24.51L160.32-24.51 160.32-35.01 167.3-35.01 167.3-24.51Q167.3-22.09 166.53-19.91 165.76-17.72 164.37-15.93 162.98-14.14 161.05-12.84 159.12-11.55 156.8-10.96L156.8-10.96Z" opacity="1" transform="matrix(1,0,0,1,0,0)" fill="#2a2c35" class="wordmark-text-0" data-fill-palette-color="primary" id="text-0"></path></svg></g></svg></g></svg></g></svg></g></svg></g><defs></defs></svg><rect width="395.52" height="85.45112630014859" fill="none" stroke="none" visibility="hidden"></rect></g></svg></g></svg>